Land_normalized_Precision Landing12_filtered_grf
version=1
nRows=12
nColumns=37
inDegrees=yes
endheader
time		1_ground_force_vx		1_ground_force_vy		1_ground_force_vz		1_ground_force_px		1_ground_force_py		1_ground_force_pz		1_ground_torque_x		1_ground_torque_y		1_ground_torque_z		2_ground_force_vx		2_ground_force_vy		2_ground_force_vz		2_ground_force_px		2_ground_force_py		2_ground_force_pz		2_ground_torque_x		2_ground_torque_y		2_ground_torque_z		3_ground_force_vx		3_ground_force_vy		3_ground_force_vz		3_ground_force_px		3_ground_force_py		3_ground_force_pz		3_ground_torque_x		3_ground_torque_y		3_ground_torque_z		4_ground_force_vx		4_ground_force_vy		4_ground_force_vz		4_ground_force_px		4_ground_force_py		4_ground_force_pz		4_ground_torque_x		4_ground_torque_y		4_ground_torque_z		
1.103667		-20.882610		812.948994		252.075526		0.095666		0.000000		0.306810		-0.202380		7.878663		2.442985		8.969253		612.768936		268.801022		-0.156497		0.000000		0.302271		0.597258		40.808123		17.901224		3.248511		-0.178775		0.040125		0.353534		1.255030		1.890869		-0.009258		0.015529		0.037973		-15.870742		0.868098		-2.109472		-0.288950		1.264850		1.900902		0.000890		-0.000049		0.000118		
1.106899		-28.310892		804.584363		238.994417		0.098370		0.000000		0.309964		-0.267614		7.605835		2.259259		16.613122		599.792440		254.701858		-0.157451		0.000000		0.304872		1.084027		39.138509		16.620199		3.164262		-0.256474		-0.004511		0.353526		1.255032		1.890888		-0.007469		0.011822		0.039153		-15.916260		0.919326		-2.172770		-0.288956		1.264860		1.900921		-0.000721		0.000042		-0.000098		
1.110131		-35.720653		794.842835		227.824391		0.100507		0.000000		0.311444		-0.314071		6.989331		2.003370		23.849552		589.578286		244.416796		-0.158661		0.000000		0.307113		1.533778		37.916742		15.718863		3.083326		-0.388047		-0.090437		0.353513		1.255049		1.890920		-0.005035		0.009245		0.043930		-15.867900		0.930891		-2.278888		-0.288972		1.264875		1.900953		-0.002005		0.000118		-0.000288		
1.113364		-42.622823		782.958630		218.075806		0.101872		0.000000		0.310968		-0.328243		6.030416		1.679673		29.235158		581.079678		235.691758		-0.159346		0.000000		0.308779		1.855704		36.884485		14.960741		3.026154		-0.518106		-0.185346		0.353494		1.255079		1.890961		-0.002993		0.008114		0.051070		-15.736760		0.891106		-2.416777		-0.289002		1.264889		1.900998		-0.002334		0.000132		-0.000359		
1.116596		-48.492313		770.136755		209.263973		0.102760		0.000000		0.309538		-0.314527		4.995587		1.357437		32.753850		574.163683		226.658061		-0.159194		0.000000		0.310031		2.044336		35.836753		14.147025		2.991915		-0.596113		-0.241454		0.353469		1.255112		1.891007		-0.002301		0.008585		0.058630		-15.562475		0.815906		-2.544071		-0.289041		1.264902		1.901050		-0.001313		0.000069		-0.000215		
1.119828		-52.856755		758.398550		201.257280		0.103648		0.000000		0.308565		-0.298157		4.278194		1.135324		35.361911		569.484145		217.007839		-0.158449		0.000000		0.311131		2.157039		34.738295		13.237459		2.966334		-0.596829		-0.222951		0.353441		1.255144		1.891056		-0.003365		0.010627		0.064814		-15.396280		0.738660		-2.608600		-0.289085		1.264911		1.901103		0.000859		-0.000041		0.000146		
1.123061		-55.455288		749.195157		194.241461		0.104829		0.000000		0.308849		-0.302259		4.083478		1.058708		38.036715		567.971637		207.460289		-0.157572		0.000000		0.312283		2.254368		33.662854		12.295915		2.939337		-0.524454		-0.136114		0.353413		1.255167		1.891105		-0.005838		0.013591		0.068547		-15.278912		0.688519		-2.579638		-0.289127		1.264912		1.901153		0.003300		-0.000149		0.000557		
1.126293		-56.327611		742.761462		188.508488		0.106265		0.000000		0.310238		-0.327836		4.322971		1.097133		41.025329		570.222746		198.502341		-0.156808		0.000000		0.313599		2.349062		32.650763		11.366305		2.914956		-0.400225		-0.033108		0.353384		1.255183		1.891153		-0.008840		0.015979		0.069498		-15.227075		0.673421		-2.473165		-0.289162		1.264908		1.901197		0.004913		-0.000217		0.000798		
1.129525		-55.837079		738.288362		184.148966		0.107680		0.000000		0.311978		-0.359961		4.759489		1.187142		43.787380		575.973222		189.691586		-0.156035		0.000000		0.315119		2.403927		31.620989		10.414122		2.907180		-0.248057		0.015528		0.353354		1.255191		1.891202		-0.011405		0.016015		0.067932		-15.236318		0.678619		-2.352229		-0.289188		1.264902		1.901238		0.005049		-0.000225		0.000780		
1.132758		-54.476696		734.678207		180.888657		0.108788		0.000000		0.313311		-0.384911		5.191013		1.278097		45.558885		584.169260		180.037732		-0.154990		0.000000		0.316830		2.372031		30.414969		9.373966		2.929110		-0.085233		-0.037083		0.353321		1.255192		1.891255		-0.012872		0.012665		0.064404		-15.294725		0.681102		-2.296383		-0.289204		1.264896		1.901280		0.003766		-0.000167		0.000565		
1.135990		-52.692256		731.208672		178.133160		0.109461		0.000000		0.313877		-0.398258		5.526614		1.346364		46.056587		593.222985		168.960946		-0.153600		0.000000		0.318673		2.246134		28.930873		8.240074		2.982672		0.073395		-0.183032		0.353281		1.255190		1.891312		-0.013089		0.006521		0.059686		-15.387005		0.666897		-2.361143		-0.289213		1.264891		1.901326		0.001656		-0.000071		0.000254		
1.139222		-50.746823		727.982891		175.348423		0.109787		0.000000		0.313833		-0.403906		5.794244		1.395648		45.693094		601.533957		156.852094		-0.152072		0.000000		0.320547		2.067422		27.216607		7.097121		3.055336		0.207303		-0.368002		0.353237		1.255185		1.891373		-0.012339		-0.000417		0.054626		-15.494964		0.639668		-2.553258		-0.289216		1.264890		1.901376		-0.000566		0.000024		-0.000093		
